<?xml version="1.0" standalone="no"?>
<!DOCTYPE svg PUBLIC "-//W3C//DTD SVG 20010904//EN"
 "http://www.w3.org/TR/2001/REC-SVG-20010904/DTD/svg10.dtd">
<svg version="1.0" xmlns="http://www.w3.org/2000/svg"
 width="1024.000000pt" height="1024.000000pt" viewBox="0 0 1024.000000 1024.000000"
 preserveAspectRatio="xMidYMid meet">
<metadata>
Created by potrace 1.11, written by Peter Selinger 2001-2013
</metadata>
<g transform="translate(0.000000,1024.000000) scale(0.100000,-0.100000)"
fill="#000000" stroke="none">
<path d="M4839 9940 c-102 -12 -215 -48 -313 -98 -121 -62 -241 -178 -288
-277 -37 -79 -48 -170 -28 -229 20 -62 86 -150 147 -195 159 -120 470 -222
623 -204 65 8 44 21 -36 22 -84 1 -282 40 -361 71 -157 60 -296 169 -344 267
-67 138 -9 305 154 442 126 108 277 170 467 191 58 7 107 14 109 16 6 6 -53 3
-130 -6z"/>
<path d="M5095 9889 c-122 -18 -207 -62 -292 -152 -147 -156 -148 -382 -2
-565 40 -51 158 -140 216 -164 80 -32 243 -44 304 -23 27 10 83 15 163 15 119
1 138 10 49 25 -24 4 -43 10 -43 14 0 4 42 35 94 68 59 39 106 77 126 104 49
68 71 78 154 72 82 -5 350 -47 446 -69 184 -42 275 -66 297 -77 23 -13 21 -14
-64 -62 -153 -86 -338 -223 -322 -239 5 -6 180 104 391 245 95 64 299 192 453
284 339 204 449 274 441 282 -3 3 -65 -32 -138 -79 -73 -47 -248 -154 -388
-238 -140 -84 -268 -161 -283 -172 -27 -20 -30 -20 -70 -3 -164 66 -376 124
-547 149 -120 18 -410 36 -581 36 -63 0 -165 7 -225 16 -131 19 -408 22 -478
5 -36 -9 -52 -9 -60 -1 -15 15 -20 167 -7 216 31 114 154 235 279 275 102 33
250 30 361 -6 47 -15 92 -29 100 -32 9 -2 -2 7 -24 21 -76 50 -224 73 -350 55z"/>
<path d="M7660 9388 c-40 -73 -110 -189 -155 -258 -45 -69 -126 -192 -180
-275 -54 -82 -113 -179 -132 -215 -18 -36 -28 -56 -21 -46 42 62 78 103 107
123 46 31 63 30 59 -4 -3 -25 0 -28 23 -25 22 2 29 -3 38 -30 7 -20 8 -35 2
-41 -12 -12 81 -141 118 -165 14 -9 28 -19 31 -22 3 -4 12 -9 21 -12 9 -4 26
-27 37 -52 12 -25 30 -50 40 -55 29 -15 72 -84 72 -114 0 -15 -11 -55 -25 -89
l-25 -63 20 -55 c11 -30 20 -67 20 -82 0 -15 5 -30 10 -33 8 -5 8 -11 0 -20
-8 -10 -6 -31 9 -82 25 -83 25 -201 1 -199 -12 1 -15 -11 -15 -50 0 -40 -5
-57 -26 -81 -24 -29 -26 -36 -18 -78 15 -78 -20 -169 -72 -187 -20 -7 -35 -22
-44 -46 -9 -19 -23 -41 -33 -48 -20 -16 -82 -19 -82 -4 0 6 -4 10 -10 10 -17
0 -12 -32 31 -181 94 -334 167 -729 199 -1087 37 -409 40 -766 10 -1030 -24
-206 -51 -392 -74 -502 -13 -63 -29 -162 -36 -220 -26 -243 -186 -841 -313
-1170 -119 -310 -318 -682 -491 -919 -71 -97 -249 -316 -266 -326 -26 -16 -17
6 41 101 145 236 272 512 359 777 28 86 69 200 91 254 21 53 37 98 35 100 -5
5 -22 -24 -121 -207 -97 -179 -240 -390 -354 -521 -125 -144 -268 -284 -347
-341 -34 -23 -90 -64 -125 -90 -150 -109 -324 -204 -474 -258 -49 -18 -115
-43 -146 -56 -31 -13 -60 -24 -64 -24 -5 0 21 30 56 67 36 38 90 100 120 138
94 119 291 415 276 415 -2 0 -32 -36 -66 -79 -52 -68 -82 -94 -218 -188 -203
-142 -403 -257 -418 -241 -2 2 46 47 108 100 253 218 361 351 559 688 88 150
235 442 273 545 153 409 192 562 289 1121 34 192 50 263 71 303 30 60 85 223
85 253 0 17 3 18 15 8 13 -11 13 -7 0 31 -9 24 -29 67 -45 96 -29 51 -39 93
-22 93 5 0 28 -14 50 -30 l42 -30 -45 66 -45 65 0 225 c0 396 -34 889 -80
1166 -49 299 -80 448 -91 448 -13 0 -11 -13 11 -134 23 -128 72 -489 95 -701
26 -254 47 -949 29 -968 -4 -4 -23 8 -43 26 -48 43 -294 207 -353 236 -44 21
-52 32 -131 169 -111 193 -130 231 -124 253 3 10 0 17 -6 16 -18 -3 -89 161
-142 327 -13 39 -23 63 -24 53 -1 -24 62 -287 83 -346 25 -68 22 -78 -33 -101
-26 -12 -59 -35 -71 -52 l-23 -32 39 24 c21 13 54 34 73 47 19 12 36 21 38 20
1 -2 25 -70 52 -153 l49 -149 -96 -6 c-54 -3 -100 -4 -105 -2 -9 5 -57 99 -57
112 0 5 10 12 23 14 19 4 18 4 -5 6 -30 1 -52 28 -64 76 -4 17 -13 39 -20 50
-37 57 -152 398 -204 604 -49 196 -94 460 -115 675 -10 100 -26 129 -19 36 31
-476 44 -814 44 -1117 -1 -250 -5 -344 -13 -351 -17 -13 -144 -35 -162 -28
-11 4 -15 21 -15 63 0 74 -74 731 -98 873 -4 23 -5 -89 -3 -251 2 -161 0 -380
-4 -486 -8 -218 -6 -213 -86 -172 -23 11 -44 18 -47 15 -9 -10 31 -35 76 -48
40 -12 42 -14 42 -51 0 -59 -29 -292 -48 -391 l-18 -89 -27 37 c-16 20 -77
136 -137 259 -261 535 -404 1166 -460 2032 -22 340 -29 376 -24 126 10 -538
93 -1113 230 -1588 67 -235 164 -467 285 -683 38 -66 39 -72 16 -51 -66 60 7
-50 81 -122 l50 -49 5 34 c8 58 69 282 83 311 17 31 32 35 41 10 3 -10 15 -38
27 -63 l21 -45 3 151 3 151 70 7 c39 4 77 10 85 13 20 8 18 -56 -3 -79 -13
-15 -14 -18 -2 -18 13 0 14 -13 7 -82 -10 -108 -15 -127 -44 -164 -22 -30 -22
-32 -4 -27 11 3 20 2 20 -1 0 -16 -32 -80 -60 -122 -18 -25 -30 -47 -28 -49 2
-2 33 16 68 41 96 67 170 102 308 145 68 22 126 39 128 39 3 0 -13 -22 -35
-50 -47 -60 -77 -135 -87 -218 l-6 -60 43 14 c53 19 110 10 147 -21 22 -19 27
-32 27 -70 0 -68 -27 -88 -115 -83 -36 2 -74 8 -84 13 -18 8 -19 5 -13 -61 16
-166 122 -404 199 -445 16 -8 10 2 -18 33 -23 25 -47 55 -54 68 -20 37 -70
199 -70 225 0 26 58 73 125 101 22 9 35 21 35 33 0 10 6 24 14 31 12 9 18 7
33 -9 14 -17 29 -21 75 -21 58 0 58 0 58 -30 0 -32 38 -80 62 -80 25 0 56 30
63 60 4 16 10 32 14 34 12 8 89 -32 184 -95 118 -79 127 -87 127 -117 0 -21 2
-22 15 -12 22 18 66 165 72 242 4 41 10 65 16 61 15 -9 2 -158 -28 -313 -14
-74 -34 -184 -45 -245 -95 -528 -149 -757 -190 -800 -43 -46 -196 -147 -300
-200 -156 -78 -307 -138 -585 -231 -335 -111 -555 -167 -718 -180 -100 -9
-145 9 -477 180 -387 200 -530 293 -761 493 -202 174 -260 295 -294 613 -18
169 -54 334 -91 418 -31 71 -40 106 -59 237 -9 61 -18 119 -21 130 -4 14 4 10
26 -15 29 -33 31 -33 26 -10 -22 103 -15 210 14 210 6 0 17 -18 26 -40 22 -56
30 -42 10 16 -9 26 -16 53 -16 60 0 21 139 161 200 203 53 35 133 61 146 48 3
-3 -1 -16 -10 -29 -20 -31 -56 -172 -56 -221 0 -36 2 -39 23 -33 57 16 76 17
110 2 36 -15 77 -66 77 -97 0 -9 -11 -28 -26 -44 -24 -26 -29 -27 -101 -23
l-75 3 6 -47 c10 -75 50 -181 103 -275 53 -95 162 -219 199 -226 13 -2 24 -2
24 0 0 2 -30 32 -66 66 -37 34 -78 79 -91 101 -37 57 -93 172 -93 189 0 22
139 76 201 78 29 1 54 -2 56 -7 14 -40 32 -59 56 -62 22 -3 30 3 44 32 19 41
35 44 109 20 30 -10 62 -30 82 -52 l34 -37 -6 80 c-3 44 -11 96 -16 115 -6 19
-10 51 -10 70 0 52 -42 177 -81 240 -18 30 -37 57 -41 58 -4 2 -8 13 -8 23 0
11 -4 18 -9 15 -5 -4 -4 5 2 19 l12 24 22 -27 c37 -45 33 -35 -84 217 -19 40
-32 75 -31 77 2 2 31 -4 63 -12 56 -15 110 -14 160 1 19 6 24 -5 58 -105 46
-137 123 -313 149 -343 l19 -22 -14 30 c-34 73 -160 465 -152 473 2 2 22 -34
46 -79 92 -177 218 -346 365 -489 97 -94 92 -86 -47 86 -182 224 -289 408
-377 644 -57 155 -82 241 -108 380 l-24 125 5 -110 c4 -107 33 -286 75 -469
11 -50 20 -91 20 -92 0 -1 -24 -10 -54 -19 -49 -16 -58 -16 -117 -1 -64 16
-109 50 -109 82 0 8 -10 34 -21 57 -67 129 -148 415 -178 622 -11 77 -28 194
-38 260 l-18 120 -2 -130 c-3 -186 -24 -679 -30 -688 -2 -4 -22 6 -44 24 -50
39 -50 29 2 -32 l41 -49 -1 -127 c-2 -136 -6 -147 -51 -137 -50 11 -104 59
-138 119 l-33 60 7 -45 c7 -46 36 -114 54 -125 19 -12 10 -23 -27 -35 -21 -7
-66 -28 -101 -47 l-62 -34 -11 28 c-57 145 -101 303 -134 483 l-23 125 -1
-115 c-1 -122 21 -435 39 -546 8 -50 8 -70 -1 -81 -10 -11 -14 -12 -20 -1 -21
39 -71 281 -95 468 -24 184 -29 621 -10 835 27 311 71 583 125 781 27 98 48
180 46 182 -1 1 -12 -24 -24 -55 -45 -117 -58 -131 -231 -247 -88 -60 -163
-106 -166 -103 -5 5 -38 137 -94 377 -31 136 -48 279 -37 313 22 66 242 389
369 542 111 134 285 306 412 407 300 239 535 363 815 430 159 39 179 46 126
48 -22 0 -60 10 -85 21 l-45 21 53 24 c69 31 162 60 240 75 61 11 81 22 63 33
-19 12 -179 -27 -268 -65 -51 -21 -101 -39 -112 -39 -11 0 -41 9 -68 21 -162
70 -343 123 -718 208 -223 52 -534 101 -635 101 -82 0 -26 -17 95 -29 137 -14
333 -49 515 -91 69 -16 166 -39 215 -50 227 -52 421 -117 573 -192 83 -41 92
-57 30 -58 -45 0 -228 -69 -338 -127 -58 -30 -165 -91 -238 -135 -144 -86
-158 -89 -227 -48 -16 10 -128 68 -248 129 -121 61 -251 135 -291 163 -39 29
-151 93 -248 142 l-176 90 -58 -44 c-54 -40 -258 -202 -277 -220 -5 -4 10 -97
32 -207 22 -110 43 -231 47 -270 l7 -71 -79 -16 c-176 -36 -217 -47 -306 -82
-254 -100 -536 -267 -582 -345 l-19 -32 43 24 c23 13 61 40 84 60 59 52 137
99 251 153 55 26 108 51 118 56 71 40 126 62 156 65 14 1 36 7 49 14 12 6 27
9 32 6 5 -3 26 4 47 15 27 14 57 20 102 20 l63 0 -17 -27 c-33 -52 -66 -73
-107 -66 -32 5 -38 3 -38 -12 0 -14 7 -16 36 -13 29 3 38 0 41 -13 4 -13 14
-16 38 -15 42 4 51 -2 59 -39 7 -36 -16 -73 -36 -58 -25 19 -53 9 -56 -19 -4
-38 46 -91 72 -76 14 8 21 7 27 -3 13 -22 11 -51 -11 -119 -11 -34 -20 -70
-20 -79 0 -22 -29 -63 -40 -56 -5 3 -22 0 -37 -8 -31 -15 -64 -12 -75 7 -4 7
-31 13 -60 15 -29 1 -60 4 -68 6 -22 7 -90 116 -90 144 0 38 47 98 97 122 63
30 73 57 38 103 -17 22 -36 36 -50 36 -23 0 -60 -32 -48 -43 3 -4 1 -7 -5 -7
-6 0 -24 -24 -41 -54 -17 -29 -38 -59 -45 -65 -9 -8 -58 -13 -128 -14 -78 -1
-113 -6 -113 -14 0 -6 -3 -15 -8 -19 -16 -16 -7 -73 14 -88 19 -13 25 -12 68
11 54 29 128 28 161 -2 31 -28 24 -49 -40 -122 -62 -71 -67 -83 -49 -129 24
-65 -27 -107 -79 -65 -15 12 -37 26 -50 31 -12 5 -22 13 -22 18 0 5 -23 12
-51 15 -28 4 -57 12 -65 18 -8 6 -29 19 -47 29 -21 11 -51 47 -87 104 -30 48
-56 83 -58 77 -4 -13 33 -75 195 -328 68 -106 123 -195 123 -197 0 -2 -32 -35
-71 -73 -119 -114 -292 -345 -320 -425 -12 -35 -11 -39 17 -80 48 -71 243
-261 346 -338 111 -82 105 -68 83 -216 -18 -123 -19 -134 -1 -134 10 0 17 17
21 58 18 162 61 429 97 607 51 256 49 246 59 243 4 -2 65 -88 134 -193 91
-136 138 -218 166 -289 22 -54 48 -115 58 -135 19 -36 19 -36 -5 -71 -30 -43
-30 -64 -1 -85 21 -15 23 -14 47 17 13 18 51 59 85 91 67 65 488 397 503 397
5 0 17 -28 27 -62 49 -177 164 -498 209 -583 10 -18 16 -55 16 -95 0 -156 24
-411 56 -605 40 -243 53 -388 36 -408 -14 -16 -6 -28 13 -21 17 7 30 -114 20
-195 -6 -51 -4 -63 14 -88 11 -15 25 -57 31 -93 32 -195 112 -568 145 -672 14
-44 30 -113 36 -152 45 -315 73 -378 240 -551 l90 -93 24 -97 c13 -54 27 -123
30 -154 17 -140 37 -246 69 -371 66 -253 93 -345 115 -395 12 -27 38 -90 58
-140 45 -115 69 -163 159 -312 41 -68 74 -126 74 -129 0 -4 11 -21 24 -38 31
-41 54 -88 77 -155 11 -30 38 -84 61 -118 l41 -64 5 -515 c4 -429 7 -517 19
-521 8 -3 16 -4 18 -1 5 4 30 281 46 493 17 247 26 306 51 341 24 33 330 355
334 351 1 -1 -4 -33 -11 -72 -8 -40 -15 -151 -16 -260 -2 -171 -5 -201 -29
-295 -28 -108 -103 -374 -146 -514 -13 -44 -22 -81 -20 -83 3 -3 15 -5 116
-17 l55 -7 42 88 c71 147 163 303 178 303 8 0 15 5 15 10 0 6 5 10 11 10 14 0
10 -30 -30 -250 -36 -190 -36 -190 -17 -190 18 0 20 5 50 180 14 80 35 179 46
220 29 103 59 249 60 284 0 21 -4 27 -15 22 -11 -4 -19 3 -25 20 -17 44 -15
45 88 39 116 -7 108 8 -15 27 -43 6 -82 15 -87 19 -4 4 5 25 21 46 17 21 38
50 49 64 10 15 46 59 79 100 33 40 69 85 80 100 77 102 138 180 169 214 l36
40 22 -27 c13 -15 30 -37 40 -50 14 -19 19 -21 36 -11 17 10 21 8 31 -14 9
-18 9 -28 1 -33 -10 -6 -25 -86 -50 -260 -16 -118 -40 -211 -56 -217 -12 -4
-14 -76 -14 -394 l0 -389 26 0 26 0 -6 252 c-4 139 -12 305 -17 369 l-11 116
29 29 c26 26 32 44 51 159 12 72 25 175 30 230 l7 100 61 -101 c73 -122 182
-268 267 -358 69 -73 95 -81 154 -48 43 23 246 246 365 401 133 172 159 203
165 197 3 -2 -6 -40 -20 -83 -64 -197 -137 -464 -137 -492 1 -9 11 4 24 29 24
46 146 424 146 451 0 19 50 18 95 0 17 -7 38 -14 49 -17 10 -2 20 -5 21 -6 2
-2 -49 -79 -111 -173 -193 -286 -306 -498 -383 -715 -22 -64 -56 -151 -76
-194 -34 -74 -39 -112 -10 -73 34 46 115 247 124 307 13 82 103 266 234 473
94 150 357 490 399 516 13 8 70 34 128 58 318 133 391 163 417 169 15 4 53 18
83 32 194 86 482 186 586 203 96 15 125 29 159 73 15 19 41 40 59 46 39 13
201 17 281 7 87 -11 118 -31 160 -98 35 -57 55 -74 55 -46 0 23 -66 150 -125
241 -78 121 -168 238 -293 380 -77 87 -108 130 -119 165 -13 41 -71 291 -94
398 -4 23 -15 68 -23 100 -32 126 -131 632 -166 848 -5 33 -23 137 -40 230
-16 94 -30 188 -30 211 0 25 -10 60 -26 90 -25 46 -26 54 -20 144 21 296 25
364 26 455 1 104 12 106 24 5 20 -159 101 -602 151 -820 13 -58 27 -123 30
-145 4 -22 13 -62 21 -90 8 -27 28 -112 45 -189 16 -76 31 -142 34 -146 2 -3
16 -60 30 -126 14 -65 37 -164 50 -219 27 -108 62 -271 100 -460 79 -394 96
-437 130 -317 72 252 134 421 218 592 l62 125 2 -55 c20 -497 115 -1021 263
-1445 39 -110 40 -112 56 -90 11 15 8 30 -16 97 -68 185 -143 490 -189 763
-52 307 -105 743 -94 772 11 31 97 173 105 173 5 0 8 -8 8 -17 1 -41 72 -260
120 -370 108 -244 241 -499 393 -755 69 -116 84 -135 96 -124 11 12 5 29 -42
112 -30 55 -85 153 -122 219 -81 145 -312 613 -350 710 -15 38 -38 113 -52
166 l-24 97 52 94 c29 51 76 128 106 172 71 105 71 111 7 208 -24 38 -64 103
-88 145 -23 43 -70 121 -103 173 -91 145 -321 553 -371 660 -140 300 -219 574
-265 915 -2 17 -8 39 -12 50 -4 11 3 5 16 -14 13 -19 37 -39 53 -44 35 -12 50
3 130 127 72 111 134 236 176 351 18 50 36 94 41 99 5 6 9 -14 9 -47 0 -196
70 -531 180 -854 51 -149 185 -493 189 -482 1 6 -15 67 -37 137 -39 123 -63
200 -139 457 -91 308 -135 528 -149 752 -6 110 -6 113 21 160 62 108 221 306
415 518 74 81 157 174 184 207 40 48 52 57 62 46 17 -17 79 -200 98 -285 8
-37 24 -103 35 -146 55 -210 109 -582 147 -1012 19 -215 15 -545 -11 -910 -34
-491 -39 -880 -20 -1385 l5 -125 -21 58 c-12 32 -23 57 -24 55 -2 -2 13 -73
34 -158 21 -85 55 -225 75 -310 56 -235 98 -390 106 -390 23 0 14 56 -44 289
-101 402 -101 406 -100 956 0 266 8 624 17 825 9 195 19 470 23 610 12 502
-47 1097 -151 1507 -14 54 -25 109 -25 123 0 47 37 194 63 250 27 57 89 264
101 336 6 31 3 45 -12 64 -11 14 -27 40 -36 58 -9 17 -20 32 -24 32 -4 0 -22
-26 -40 -57 -36 -64 -149 -231 -187 -278 -14 -16 -53 -66 -88 -111 -61 -79
-151 -182 -293 -333 -38 -42 -83 -92 -98 -111 -57 -71 -128 -140 -144 -140
-19 0 -75 82 -122 180 -18 36 -47 94 -66 130 -37 71 -42 105 -19 114 17 6 20
39 5 67 -14 24 -30 25 -30 0 0 -11 -3 -27 -6 -36 -6 -14 -8 -14 -25 1 -11 9
-19 23 -19 30 0 7 -22 45 -50 86 -27 40 -50 79 -50 87 0 8 16 29 35 47 38 34
42 54 26 126 -6 24 -15 72 -21 108 -17 99 -44 148 -124 230 -90 92 -115 148
-88 198 16 28 8 42 -24 42 -13 0 -24 5 -24 12 0 26 -19 -9 -23 -42 -4 -33 -4
-33 -5 8 -1 23 3 43 8 43 20 3 25 4 38 12 7 5 34 10 60 11 68 5 113 17 105 29
-7 12 91 1 118 -14 10 -5 51 -9 91 -9 44 0 84 -6 100 -14 16 -9 45 -13 67 -11
24 3 64 -4 97 -15 31 -11 69 -20 84 -20 14 0 30 -4 36 -9 5 -5 59 -26 119 -46
123 -40 449 -196 480 -229 11 -12 27 -33 36 -46 9 -14 20 -22 23 -19 11 10
-68 118 -99 138 -32 19 -173 95 -215 116 -47 23 -213 88 -322 126 -78 26 -82
35 -38 93 16 21 27 42 25 46 -6 9 139 50 176 50 34 0 57 16 43 30 -14 14 -138
-15 -277 -65 -54 -19 -104 -32 -110 -28 -7 4 -46 33 -87 64 -176 133 -331 175
-492 133 -33 -8 -62 -13 -65 -11 -2 3 -7 194 -10 425 l-6 421 -116 73 c-63 40
-118 74 -122 76 -3 1 -39 -57 -79 -130z m-5134 -405 c35 -12 578 -290 601
-308 2 -1 -39 -35 -90 -77 -260 -213 -482 -465 -703 -796 l-68 -104 -19 44
c-14 32 -16 47 -8 60 8 13 7 19 -3 25 -13 8 -43 155 -37 182 1 8 -5 21 -16 28
-16 12 -18 27 -16 136 1 67 7 133 13 148 9 22 8 32 -9 60 -16 26 -19 43 -14
88 6 63 15 84 51 124 21 22 23 27 9 27 -24 0 -21 37 4 51 16 8 20 17 15 39 -4
24 1 34 28 57 18 15 47 36 65 45 23 13 31 24 30 40 -4 43 1 55 26 66 14 6 25
16 25 21 0 14 42 59 56 60 6 1 33 -7 60 -16z m5777 -474 c89 -30 144 -59 228
-122 83 -62 166 -144 134 -133 -11 4 -78 16 -150 27 -172 27 -382 23 -465 -10
-30 -11 -56 -21 -58 -21 -1 0 -1 57 0 127 l3 127 45 12 c75 20 192 17 263 -7z
m-6747 -757 c-6 -10 40 -46 71 -56 22 -7 30 -21 43 -73 10 -41 3 -41 -33 -3
-36 37 -48 38 -69 2 -19 -31 -14 -72 8 -72 8 0 14 -9 14 -20 0 -12 10 -24 23
-30 21 -8 21 -9 -6 -9 -19 -1 -38 10 -60 32 -44 45 -54 65 -62 131 -9 73 5
106 47 106 16 0 27 -4 24 -8z m699 -497 c14 -88 37 -206 51 -263 13 -57 24
-110 24 -117 0 -7 -33 -39 -72 -71 -151 -120 -300 -247 -383 -325 -47 -45 -85
-78 -85 -75 0 24 69 273 115 415 70 215 152 405 240 557 l70 119 7 -40 c4 -22
19 -112 33 -200z m5654 49 c-11 -84 -19 -107 -19 -57 0 34 21 145 27 140 2 -2
-2 -39 -8 -83z m-5595 -24 c8 -47 29 -143 46 -213 16 -71 30 -137 30 -147 0
-21 -29 -36 -35 -17 -15 45 -75 387 -75 429 0 74 16 50 34 -52z m-1314 -205
c6 4 10 -8 10 -33 0 -22 3 -60 6 -86 6 -39 4 -46 -10 -46 -9 0 -16 -6 -14 -14
2 -8 -18 -37 -44 -64 -27 -28 -48 -57 -48 -65 0 -20 -24 -39 -42 -32 -8 3 -31
28 -52 55 l-38 49 34 63 c18 35 36 61 39 58 3 -3 32 26 63 63 46 54 61 65 72
57 7 -7 18 -9 24 -5z m1683 -37 c-15 -17 -97 -78 -226 -168 -31 -22 -241 -194
-312 -256 -58 -50 -157 -134 -217 -183 -35 -28 -45 -23 -24 16 26 52 266 262
460 403 34 25 82 61 106 81 25 20 86 64 135 97 66 44 91 56 93 45 2 -8 -5 -24
-15 -35z m35 -105 c-30 -156 -65 -389 -78 -508 -20 -192 -17 -194 -97 76 -40
134 -75 262 -78 285 l-7 40 74 57 c40 31 99 77 131 102 32 25 62 45 66 45 5 0
0 -44 -11 -97z m-280 -190 c5 -10 24 -72 42 -138 18 -66 36 -127 41 -136 12
-23 70 -241 66 -245 -17 -18 -177 435 -177 502 0 37 14 45 28 17z m5697 -1256
c15 -76 91 -301 137 -407 71 -163 183 -369 306 -564 42 -67 334 -550 347 -574
18 -33 8 -66 -41 -135 -24 -34 -56 -84 -70 -112 -32 -59 -103 -170 -155 -240
-20 -27 -50 -77 -66 -110 -17 -33 -51 -98 -76 -145 -25 -47 -60 -121 -77 -165
-35 -88 -120 -339 -120 -354 0 -16 -20 -64 -25 -59 -6 6 -54 216 -65 283 -5
28 -31 151 -59 275 -56 242 -56 249 -31 445 7 55 9 138 5 215 -4 69 -8 222
-10 340 -2 118 -8 445 -13 725 -6 281 -11 536 -12 568 0 62 14 70 25 14z
m-4639 -57 c2 0 10 -13 19 -30 23 -44 2 -38 -53 15 l-47 46 39 -16 c21 -8 40
-15 42 -15z m2363 -135 c43 -77 78 -141 76 -143 -1 -1 -20 3 -41 10 -39 13
-39 14 -81 133 -38 110 -50 156 -38 144 2 -3 40 -68 84 -144z m-362 54 c10
-24 9 -28 -10 -33 -40 -10 -60 -7 -53 9 8 22 -26 19 -114 -9 -65 -21 -75 -22
-78 -9 -5 20 11 30 66 38 53 8 112 34 112 50 0 6 6 17 12 23 10 10 17 7 33
-15 11 -15 25 -39 32 -54z m-514 -74 c1 -14 -5 -21 -21 -23 -23 -3 -23 -2 -16
60 4 35 9 68 13 73 5 9 15 -40 24 -110z m-2109 -69 c9 -14 16 -31 16 -38 0
-12 -38 -43 -45 -36 -3 3 -35 201 -34 214 0 5 10 -19 23 -53 13 -34 31 -74 40
-87z m2496 72 c-14 -6 -49 -22 -78 -34 -33 -15 -52 -19 -50 -11 5 14 105 57
133 56 17 0 16 -2 -5 -11z m217 -95 c-9 -9 -47 12 -47 26 0 31 13 32 31 4 10
-15 17 -28 16 -30z m-2000 25 c23 -32 41 -86 33 -99 -8 -11 -14 -10 -37 7 -23
17 -28 29 -28 63 -1 41 13 54 32 29z m1391 -16 c2 -7 -3 -12 -12 -12 -9 0 -16
7 -16 16 0 17 22 14 28 -4z m348 -14 c62 -22 46 -88 -35 -141 -20 -13 -49 -32
-64 -42 l-28 -18 6 44 c13 94 28 154 39 161 16 11 45 10 82 -4z m132 -35 c-2
-12 -14 -19 -36 -21 -37 -4 -42 8 -9 24 34 17 49 16 45 -3z m-2587 -90 c-10
-17 -10 -16 -11 3 0 23 13 41 18 25 2 -6 -1 -18 -7 -28z m-42 -53 l0 -25 -15
28 c-8 15 -12 32 -8 38 9 16 24 -10 23 -41z m-34 -81 c-10 -30 -22 -22 -29 19
-11 69 -7 80 15 39 11 -22 17 -46 14 -58z m3619 -135 c23 -23 19 -40 -4 -19
-11 10 -20 22 -20 27 0 12 7 10 24 -8z m-2974 -203 c0 -27 -19 -36 -37 -18
-18 18 -9 37 18 37 12 0 19 -7 19 -19z m2636 -1643 c-28 -84 -32 -89 -62 -82
-21 5 -33 -1 -65 -35 -41 -42 -72 -51 -110 -31 -12 7 -19 7 -19 1 0 -18 -74
-9 -93 11 -18 18 -18 19 8 12 19 -5 36 1 63 19 20 14 64 38 97 52 69 30 84 38
150 83 27 17 50 32 51 32 0 0 -8 -28 -20 -62z m-396 -142 c0 -2 -7 -7 -16 -10
-8 -3 -12 -2 -9 4 6 10 25 14 25 6z m-426 -161 c-10 -8 -30 -14 -44 -14 -24 0
-24 0 5 14 42 19 64 19 39 0z m-77 -21 c-3 -3 -12 -4 -19 -1 -8 3 -5 6 6 6 11
1 17 -2 13 -5z m-349 -127 c15 -41 62 -235 98 -405 39 -185 74 -219 153 -149
56 49 89 76 139 114 25 19 65 51 90 71 60 50 152 112 240 164 41 24 122 75
180 114 59 38 115 73 125 77 14 5 3 -21 -39 -101 -124 -231 -320 -500 -481
-659 -68 -68 -130 -123 -138 -123 -15 0 -58 62 -110 158 -30 56 -59 80 -71 61
-3 -6 -1 -14 5 -18 6 -4 29 -44 51 -89 l39 -81 -43 -20 c-24 -10 -46 -23 -49
-28 -10 -16 -119 -2 -154 19 -18 11 -33 22 -33 25 0 3 37 41 83 83 143 135 76
97 -92 -52 -89 -79 -191 -168 -226 -198 -36 -30 -78 -73 -94 -95 -16 -22 -66
-76 -111 -120 l-82 -80 6 65 c3 36 17 106 31 155 14 50 39 146 55 214 33 132
77 266 105 321 10 19 30 68 46 109 58 157 197 458 225 486 24 23 39 18 52 -18z
m1546 -628 c-50 -99 -216 -393 -267 -474 -79 -125 -204 -271 -341 -398 -69
-65 -129 -117 -133 -117 -19 1 -315 455 -302 463 4 3 137 61 389 172 91 39
199 89 240 110 92 46 341 220 395 275 22 22 41 36 43 31 2 -5 -9 -33 -24 -62z
m-731 -101 c-5 -7 -38 -50 -72 -96 -61 -83 -239 -295 -251 -300 -3 -1 -16 16
-29 38 -12 22 -33 53 -47 69 l-25 30 23 14 c13 8 64 37 113 65 50 28 135 83
189 121 101 72 116 81 99 59z m-382 -371 c30 -58 17 -68 -19 -15 -35 51 -45
91 -16 67 8 -7 24 -30 35 -52z m-1185 -357 l-15 -35 -1 32 c0 17 5 44 12 60
l12 28 3 -25 c2 -14 -3 -41 -11 -60z m11 -253 c-6 -64 -14 -117 -19 -117 -4 0
-8 69 -8 152 l0 153 19 -36 c18 -33 18 -44 8 -152z"/>
<path d="M6579 8731 c-33 -26 -30 -80 10 -249 69 -289 153 -484 250 -581 34
-34 75 -64 96 -71 49 -16 150 -9 199 15 58 28 164 126 261 243 69 83 85 109
85 136 0 62 -74 98 -126 61 -12 -8 -62 -63 -112 -122 -170 -203 -232 -226
-314 -118 -67 89 -134 277 -193 540 -30 135 -48 165 -101 165 -17 0 -42 -9
-55 -19z"/>
<path d="M3539 8483 l-24 -28 28 24 c25 23 32 31 24 31 -2 0 -14 -12 -28 -27z"/>
<path d="M3439 8393 c-100 -105 -294 -353 -275 -353 3 0 32 35 63 78 77 104
177 228 227 280 22 23 38 42 35 42 -3 0 -25 -21 -50 -47z"/>
<path d="M6968 8352 c-24 -23 -37 -42 -31 -45 6 -4 27 13 48 38 45 55 38 58
-17 7z"/>
<path d="M6073 8280 c-28 -25 -34 -48 -25 -85 7 -26 22 -37 105 -78 120 -59
196 -131 224 -210 38 -110 16 -316 -57 -531 -75 -221 -212 -507 -314 -655 -83
-119 -86 -125 -86 -152 0 -36 39 -69 81 -69 44 1 54 9 120 105 134 192 254
434 354 715 63 173 90 336 83 491 -5 98 -9 116 -40 181 -46 95 -98 152 -200
220 -125 84 -205 106 -245 68z"/>
<path d="M1498 8233 c7 -3 16 -2 19 1 4 3 -2 6 -13 5 -11 0 -14 -3 -6 -6z"/>
<path d="M5650 8231 c0 -5 4 -13 10 -16 32 -20 200 -282 282 -440 32 -60 57
-105 58 -99 0 17 -92 192 -151 284 -116 181 -199 295 -199 271z"/>
<path d="M4170 7904 c0 -5 -12 -52 -25 -104 -106 -401 -114 -1086 -20 -1595
48 -256 114 -485 200 -694 32 -77 163 -341 170 -341 2 0 -21 53 -51 118 -246
519 -355 1044 -356 1712 0 309 29 631 78 839 8 35 12 66 9 69 -3 3 -5 1 -5 -4z"/>
<path d="M7160 7723 c1 -18 56 -117 67 -121 16 -5 -39 120 -55 126 -7 2 -12 0
-12 -5z"/>
<path d="M4182 7540 c0 -19 2 -27 5 -17 2 9 2 25 0 35 -3 9 -5 1 -5 -18z"/>
<path d="M6873 7549 c-72 -35 -137 -126 -203 -284 -80 -193 -120 -378 -120
-563 0 -160 27 -208 105 -188 49 12 61 51 63 198 2 191 48 378 136 557 56 114
77 135 123 126 53 -10 144 -58 250 -131 100 -70 138 -79 173 -44 13 13 20 33
20 59 0 34 -6 45 -47 81 -90 79 -260 173 -355 195 -83 19 -95 19 -145 -6z"/>
<path d="M1461 6176 c-13 -15 -8 -47 15 -109 25 -68 38 -64 -230 -69 -207 -4
-249 -8 -270 -22 -25 -16 -36 -59 -18 -69 4 -2 70 -1 147 2 77 4 145 5 150 4
6 -2 19 -34 29 -71 10 -37 21 -75 23 -84 5 -17 -6 -18 -126 -18 -73 0 -141 -5
-152 -10 -24 -13 -24 -35 0 -59 18 -18 31 -19 159 -14 137 6 140 5 152 -16 18
-35 6 -51 -40 -51 -89 0 -140 -45 -140 -125 0 -119 125 -240 211 -205 40 17
68 59 75 114 4 25 12 46 18 46 6 0 43 -31 81 -70 73 -73 97 -84 115 -49 9 16
8 26 -6 47 -21 32 -135 146 -181 182 -27 21 -34 34 -39 78 l-7 52 56 0 c70 0
106 24 88 58 -10 19 -20 22 -79 22 -37 0 -73 4 -79 8 -18 11 -65 154 -55 164
5 5 44 8 88 6 l79 -3 25 -77 c29 -88 38 -101 71 -96 38 5 35 43 -20 208 -28
84 -51 157 -51 162 0 6 -7 25 -16 44 -18 37 -52 46 -73 20z m-105 -687 c23
-19 19 -114 -7 -140 -18 -18 -23 -19 -42 -6 -34 22 -57 59 -64 101 -5 31 -2
42 13 53 21 16 77 12 100 -8z"/>
<path d="M1643 6114 c-7 -19 5 -60 56 -189 41 -103 56 -123 85 -112 38 15 30
58 -46 245 -28 66 -32 72 -59 72 -18 0 -32 -6 -36 -16z"/>
<path d="M2438 5940 c-12 -38 -10 -371 3 -490 22 -220 45 -345 115 -624 38
-151 153 -504 189 -576 12 -25 46 -105 75 -179 30 -74 56 -129 57 -124 2 6
-21 80 -52 164 -99 269 -107 292 -137 389 -75 244 -91 302 -119 429 -16 75
-36 163 -44 196 -12 53 -41 249 -61 420 -3 33 -9 141 -13 240 -3 103 -9 169
-13 155z"/>
<path d="M679 5879 c-23 -44 5 -301 50 -449 11 -36 27 -90 36 -120 9 -30 46
-115 81 -187 55 -116 67 -133 88 -133 13 0 29 7 36 16 11 13 5 33 -43 127
-102 206 -161 418 -174 637 l-8 125 -27 3 c-19 2 -30 -3 -39 -19z"/>
<path d="M1637 5603 c-11 -10 -8 -83 3 -83 6 0 10 20 10 45 0 46 -2 50 -13 38z"/>
<path d="M4597 5239 c7 -7 15 -10 18 -7 3 3 -2 9 -12 12 -14 6 -15 5 -6 -5z"/>
<path d="M1146 5221 c-3 -5 -5 -89 -3 -188 l2 -179 -43 -86 c-59 -120 -160
-270 -291 -433 -103 -128 -161 -221 -161 -259 0 -9 36 -61 81 -116 81 -101
114 -137 205 -221 27 -25 61 -63 76 -85 l27 -39 -14 -135 c-34 -337 -45 -609
-26 -639 7 -11 33 9 109 83 119 116 128 123 304 215 75 40 159 89 185 111 48
38 49 39 61 122 39 254 51 355 57 461 4 65 9 117 10 115 2 -2 16 -48 30 -103
27 -104 38 -126 55 -109 7 7 3 33 -9 79 -11 39 -31 122 -46 185 -16 69 -36
129 -50 150 -32 47 -39 82 -25 125 9 28 9 64 -1 161 -12 127 -22 154 -57 154
-9 0 -45 12 -80 27 -34 14 -65 23 -68 20 -4 -3 -9 -26 -11 -52 -3 -25 -9 -45
-12 -45 -4 0 -8 -14 -9 -32 -2 -17 -11 -37 -22 -45 -18 -13 -18 -14 7 -61 30
-55 68 -92 95 -92 30 0 94 -72 101 -113 3 -20 1 -78 -4 -129 -5 -51 -15 -154
-23 -229 -10 -113 -16 -140 -36 -167 -26 -35 -84 -62 -135 -62 -39 0 -42 -5
-19 -31 14 -15 14 -21 0 -53 -10 -24 -22 -36 -34 -36 -18 0 -32 -18 -32 -40 0
-5 14 -25 31 -45 29 -32 31 -40 25 -82 -3 -25 -13 -59 -21 -76 -8 -16 -12 -33
-10 -37 3 -5 -3 -11 -12 -13 -14 -4 -12 -5 5 -6 20 -1 21 -4 12 -21 -6 -11
-17 -20 -25 -20 -8 0 -15 -4 -15 -10 0 -5 -10 -10 -22 -10 -27 -1 -73 -34
-181 -132 -44 -40 -84 -74 -88 -76 -5 -2 -9 60 -9 137 0 91 4 141 10 141 7 0
7 6 0 20 -8 15 -6 66 6 188 9 92 20 204 24 248 5 57 15 95 31 124 17 31 21 44
12 47 -15 5 -17 33 -4 65 5 13 15 50 22 83 7 33 17 71 22 85 6 14 11 39 12 57
2 35 37 72 68 73 9 0 17 4 17 9 0 6 10 8 21 6 20 -4 21 -1 16 31 -3 20 -2 59
3 87 7 35 7 54 -1 63 -16 19 -3 93 27 157 13 29 24 62 24 73 0 12 6 37 14 56
10 22 11 39 5 49 -11 18 -21 5 -45 -61 -10 -25 -40 -103 -68 -175 l-51 -130
-7 75 c-4 41 -10 236 -14 433 -6 324 -11 386 -28 358z m5 -781 c1 -63 0 -124
-3 -135 -3 -11 -9 -42 -13 -70 -11 -60 -9 -54 -23 -88 -7 -16 -10 -33 -6 -38
3 -5 0 -9 -5 -9 -6 0 -11 -19 -11 -42 0 -27 -3 -38 -9 -30 -6 10 -12 4 -24
-20 -14 -30 -14 -35 -1 -56 13 -19 14 -33 5 -70 -5 -26 -13 -66 -16 -89 -10
-63 -27 -72 -70 -34 -20 17 -39 31 -43 31 -23 0 -196 195 -245 277 -9 14 16
55 158 262 198 289 235 345 263 401 l27 55 7 -115 c3 -63 7 -167 9 -230z"/>
<path d="M1566 5085 c-117 -62 -206 -150 -206 -203 0 -15 14 -37 37 -59 43
-39 235 -137 306 -155 41 -11 49 -10 64 5 29 29 4 62 -63 82 -77 22 -193 83
-253 132 -10 8 50 60 127 109 65 43 82 59 82 78 0 21 -16 36 -39 36 -5 0 -29
-11 -55 -25z"/>
<path d="M1950 4569 c-33 -13 -78 -57 -97 -94 -15 -27 -20 -123 -11 -180 2
-15 -2 -19 -15 -17 -25 4 -47 -16 -47 -42 0 -25 74 -100 165 -168 80 -59 82
-60 105 -53 25 8 27 50 3 70 -10 7 -45 36 -77 62 l-59 48 79 6 c96 8 123 18
157 58 66 79 35 243 -57 300 -36 23 -103 27 -146 10z m120 -97 c33 -33 47 -89
33 -135 -8 -28 -15 -34 -63 -46 -74 -18 -105 -6 -119 46 -21 76 28 163 91 163
19 0 40 -10 58 -28z"/>
<path d="M3831 4371 c-7 -5 -17 -30 -22 -56 -12 -64 -47 -139 -94 -199 l-38
-50 34 21 c19 12 49 42 67 68 53 78 94 241 53 216z"/>
<path d="M3070 4250 c-8 -5 -12 -12 -8 -15 9 -9 48 4 48 16 0 12 -21 11 -40
-1z"/>
<path d="M3120 4209 c0 -5 5 -7 10 -4 6 3 10 8 10 11 0 2 -4 4 -10 4 -5 0 -10
-5 -10 -11z"/>
<path d="M1452 4198 c-7 -7 -12 -29 -12 -50 0 -20 -6 -86 -14 -145 -29 -216
-29 -247 -6 -268 31 -28 53 -9 62 51 14 98 38 330 38 365 0 38 -14 59 -40 59
-9 0 -21 -5 -28 -12z"/>
<path d="M6200 4078 c-80 -87 -202 -167 -287 -187 l-38 -9 49 -1 c72 -1 170
54 274 154 77 75 98 106 70 104 -7 -1 -38 -28 -68 -61z"/>
<path d="M1205 4098 c-11 -29 8 -83 26 -73 14 10 11 61 -6 75 -12 10 -16 9
-20 -2z"/>
<path d="M6254 4019 c-7 -12 12 -29 34 -29 15 0 16 12 0 28 -15 15 -25 15 -34
1z"/>
<path d="M6226 3981 c-4 -7 -5 -15 -2 -18 9 -9 19 4 14 18 -4 11 -6 11 -12 0z"/>
<path d="M1176 3944 c-13 -33 -6 -52 25 -64 17 -7 38 -24 46 -37 l16 -23 13
24 c14 29 22 102 11 112 -4 4 -16 -2 -27 -14 -18 -18 -24 -20 -40 -9 -11 6
-20 15 -20 19 0 14 -18 8 -24 -8z"/>
<path d="M5690 3920 c8 -5 20 -10 25 -10 6 0 3 5 -5 10 -8 5 -19 10 -25 10 -5
0 -3 -5 5 -10z"/>
<path d="M2040 3890 c0 -36 23 -125 34 -132 16 -11 36 -10 36 3 0 33 -44 149
-56 149 -8 0 -14 -9 -14 -20z"/>
<path d="M2029 3656 c-2 -2 -45 -6 -96 -9 -50 -3 -97 -8 -102 -12 -17 -10 -13
-53 6 -64 22 -12 233 -2 251 12 22 17 14 57 -14 67 -27 11 -38 12 -45 6z"/>
<path d="M2215 3533 c-43 -29 -255 -203 -255 -210 0 -2 5 -13 10 -24 19 -34
55 -22 136 44 42 34 100 79 128 100 57 42 77 77 56 101 -17 22 -29 20 -75 -11z"/>
<path d="M1887 3464 c-4 -4 -7 -16 -7 -26 0 -20 25 -25 36 -7 8 13 -19 43 -29
33z"/>
<path d="M2247 3326 c-6 -16 2 -28 14 -20 12 7 11 34 0 34 -5 0 -11 -6 -14
-14z"/>
<path d="M2166 3254 c-7 -18 20 -74 35 -74 11 0 5 63 -7 82 -8 13 -21 9 -28
-8z"/>
<path d="M2316 3218 c-12 -45 -7 -433 6 -446 14 -14 54 -16 63 -2 3 5 6 109 6
231 0 235 0 239 -47 239 -14 0 -24 -8 -28 -22z"/>
<path d="M2077 3118 c-25 -14 -21 -51 14 -119 38 -77 70 -110 98 -102 33 8 36
40 8 82 -14 20 -36 60 -50 88 -28 55 -44 66 -70 51z"/>
<path d="M4500 3103 c0 -19 -76 -63 -107 -63 -21 0 -24 -3 -15 -12 9 -9 21 -9
50 0 57 17 71 15 98 -17 13 -16 33 -31 44 -34 17 -4 14 2 -15 34 -19 21 -35
47 -35 57 0 20 -20 54 -20 35z"/>
<path d="M1351 3080 c-1 -46 27 -234 54 -355 105 -487 251 -867 488 -1270 117
-200 320 -504 382 -573 90 -100 85 -72 -9 47 -247 315 -547 879 -684 1286 -87
260 -171 575 -197 740 -19 117 -33 171 -34 125z"/>
<path d="M1882 3068 c-30 -30 -4 -87 82 -177 67 -69 100 -88 122 -70 27 22 15
51 -42 103 -30 28 -68 74 -82 101 -28 51 -56 67 -80 43z"/>
<path d="M4324 3059 c-8 -14 18 -31 30 -19 9 9 0 30 -14 30 -5 0 -12 -5 -16
-11z"/>
<path d="M2494 2838 c3 -17 26 -62 50 -99 41 -65 43 -72 49 -167 4 -55 16
-166 27 -248 11 -82 20 -153 20 -158 0 -34 -152 262 -220 427 -22 53 -50 77
-50 42 0 -8 32 -79 71 -156 38 -77 65 -138 59 -134 -7 4 -57 75 -112 159 -55
83 -116 168 -134 189 -19 20 -34 45 -34 55 0 9 -5 24 -10 32 -8 13 -11 13 -26
-2 -16 -16 -16 -27 -5 -132 9 -74 18 -120 27 -127 8 -7 16 -10 18 -8 2 2 -2
51 -9 109 -7 58 -11 107 -9 109 2 2 16 -18 31 -44 66 -112 202 -308 279 -401
124 -153 131 -166 149 -274 37 -217 115 -494 142 -504 9 -4 18 -4 20 -2 3 3
-7 44 -21 93 -31 108 -75 288 -85 355 l-8 49 29 -28 c53 -51 66 -82 73 -178
14 -188 34 -316 56 -352 12 -19 22 -33 24 -31 1 2 -3 48 -10 103 -29 231 -37
313 -33 325 3 9 15 4 38 -16 44 -37 90 -67 96 -61 3 2 -12 17 -33 33 -106 80
-111 91 -125 292 -7 95 -16 172 -20 172 -4 0 -8 -68 -8 -152 l0 -152 -29 28
c-45 43 -77 114 -90 196 -6 41 -25 156 -41 254 -17 99 -28 181 -26 183 1 2 45
-53 97 -121 121 -160 305 -355 445 -472 l111 -93 -36 -73 c-29 -60 -36 -87
-39 -150 -4 -77 0 -101 65 -393 21 -97 95 -330 230 -730 101 -301 133 -380
146 -364 2 2 -54 170 -125 373 -70 203 -135 398 -143 435 -8 36 -26 103 -40
149 -45 151 -96 409 -98 501 -2 82 1 92 32 154 19 37 37 67 40 67 4 0 32 -19
64 -42 31 -24 76 -53 99 -66 l43 -24 -35 29 c-19 15 -62 53 -96 83 -33 30 -78
71 -100 90 -161 143 -243 222 -347 335 -165 180 -335 404 -396 523 -26 50 -46
56 -37 10z"/>
<path d="M4925 2680 c3 -5 8 -10 11 -10 2 0 4 5 4 10 0 6 -5 10 -11 10 -5 0
-7 -4 -4 -10z"/>
<path d="M1893 2433 c-16 -6 -17 -47 -2 -75 15 -28 2 -37 -66 -46 -64 -8 -88
-29 -69 -59 14 -23 73 -28 141 -13 30 6 59 8 68 3 16 -9 65 -72 65 -84 0 -5
-31 -24 -70 -45 -69 -36 -86 -56 -74 -88 10 -26 50 -19 132 24 l76 40 41 -40
c71 -69 131 -45 80 32 -14 21 -23 43 -20 49 4 5 24 21 46 35 42 26 51 57 21
73 -14 7 -31 4 -68 -14 -27 -14 -56 -25 -65 -25 -17 0 -79 63 -79 81 0 5 30
24 68 42 60 29 67 36 67 62 0 42 -28 43 -114 6 -38 -17 -73 -31 -78 -31 -5 0
-17 15 -28 33 -26 45 -41 53 -72 40z"/>
<path d="M2295 1925 c-72 -65 -126 -88 -189 -81 -111 13 -111 13 -114 -15 -5
-46 28 -64 121 -64 71 0 89 4 137 29 64 33 142 99 153 128 9 26 -8 48 -37 48
-11 -1 -43 -21 -71 -45z"/>
<path d="M8574 1716 c-21 -18 -124 -88 -229 -156 -104 -67 -246 -159 -315
-205 -146 -96 -368 -228 -468 -279 -83 -42 -126 -71 -567 -391 -183 -132 -507
-391 -617 -492 -64 -59 -35 -55 33 5 89 78 252 209 449 358 206 157 308 228
420 293 41 25 143 90 226 145 190 127 270 177 464 291 285 168 579 366 646
436 40 41 8 38 -42 -5z"/>
<path d="M2393 1644 c-26 -6 -33 -22 -23 -50 8 -19 18 -22 117 -27 91 -4 110
-2 121 11 15 20 15 24 -1 46 -10 13 -31 18 -102 21 -50 2 -100 1 -112 -1z"/>
<path d="M2297 1453 c-13 -13 -7 -75 12 -111 27 -52 66 -85 99 -85 27 0 40 5
128 52 46 24 144 44 157 31 5 -4 -16 -43 -46 -86 -62 -90 -74 -119 -57 -139
22 -27 48 -16 81 33 115 166 119 174 119 212 0 21 -6 43 -15 50 -43 36 -184
16 -296 -41 -32 -16 -63 -29 -68 -29 -6 0 -22 27 -38 60 -21 46 -32 60 -48 60
-12 0 -25 -3 -28 -7z"/>
<path d="M2886 1319 c-8 -50 1 -104 20 -120 11 -9 15 -7 20 6 8 19 -16 155
-26 155 -4 0 -10 -18 -14 -41z"/>
<path d="M2375 1148 c-7 -19 18 -131 30 -135 6 -1 17 1 25 7 12 7 13 18 2 66
-11 52 -23 73 -45 74 -4 0 -10 -6 -12 -12z"/>
<path d="M2890 1075 c-14 -16 -10 -31 35 -129 33 -73 51 -91 80 -80 21 9 19
52 -7 115 -40 100 -77 132 -108 94z"/>
<path d="M2492 938 c-29 -29 -3 -90 71 -167 56 -58 111 -77 133 -46 18 24 8
41 -42 76 -43 29 -94 87 -94 106 0 12 -33 43 -46 43 -6 0 -15 -5 -22 -12z"/>
</g>
</svg>
